<?xml version="1.0" encoding="UTF-8" standalone="no"?>
<!-- Created with Inkscape (http://www.inkscape.org/) -->

<svg
   width="1920"
   height="200"
   viewBox="0 0 1920 200"
   version="1.1"
   id="svg1"
   inkscape:version="1.3.2 (091e20ef0f, 2023-11-25)"
   sodipodi:docname="wheel-of-heaven_brand_linear.svg"
   xmlns:inkscape="http://www.inkscape.org/namespaces/inkscape"
   xmlns:sodipodi="http://sodipodi.sourceforge.net/DTD/sodipodi-0.dtd"
   xmlns="http://www.w3.org/2000/svg"
   xmlns:svg="http://www.w3.org/2000/svg">
  <sodipodi:namedview
     id="namedview1"
     pagecolor="#ffffff"
     bordercolor="#cccccc"
     borderopacity="1"
     inkscape:showpageshadow="0"
     inkscape:pageopacity="1"
     inkscape:pagecheckerboard="0"
     inkscape:deskcolor="#d1d1d1"
     inkscape:document-units="px"
     showguides="false"
     inkscape:zoom="0.61661906"
     inkscape:cx="1011.1591"
     inkscape:cy="311.37539"
     inkscape:window-width="1808"
     inkscape:window-height="985"
     inkscape:window-x="0"
     inkscape:window-y="0"
     inkscape:window-maximized="1"
     inkscape:current-layer="layer1" />
  <defs
     id="defs1">
    <rect
       x="0"
       y="401.80679"
       width="1861.5907"
       height="335.53055"
       id="rect7" />
    <rect
       x="236.20558"
       y="202.86031"
       width="1370.8616"
       height="794.69012"
       id="rect3" />
    <rect
       x="236.20558"
       y="202.86031"
       width="1370.8616"
       height="794.69012"
       id="rect3-2" />
  </defs>
  <g
     inkscape:label="Layer 1"
     inkscape:groupmode="layer"
     id="layer1">
    <text
       xml:space="preserve"
       id="text3"
       style="font-style:normal;font-variant:normal;font-weight:300;font-stretch:normal;font-size:128px;line-height:0;font-family:Tomorrow;-inkscape-font-specification:'Tomorrow Light';letter-spacing:10px;white-space:pre;shape-inside:url(#rect3);display:inline;fill:#000000"
       transform="translate(35.961681,229.48209)" />
    <text
       xml:space="preserve"
       id="text3-1"
       style="font-style:normal;font-variant:normal;font-weight:300;font-stretch:normal;font-size:128px;line-height:0;font-family:Tomorrow;-inkscape-font-specification:'Tomorrow Light';letter-spacing:10px;white-space:pre;shape-inside:url(#rect3-2);display:inline;fill:#000000"
       transform="translate(4.7457028,-495.2964)" />
    <path
       d="M 65.300069,162.89079 34.409341,37.109208 H 50.793374 L 75.54009,148.04276 h 3.754674 L 102.67614,37.109208 h 14.16537 l 23.38138,110.933552 h 3.75467 L 168.72428,37.109208 h 16.38403 L 154.21758,162.89079 H 129.8122 L 109.67349,70.047941 89.705452,162.89079 Z m 180.875011,0 V 37.109208 h 15.5307 v 52.736106 h 62.29346 V 37.109208 h 15.5307 V 162.89079 h -15.5307 v -59.22145 h -62.29346 v 59.22145 z m 166.88013,0 V 37.109208 h 82.94417 v 14.336029 h -67.41347 v 38.22941 h 60.24545 v 14.165363 h -60.24545 v 44.71475 h 67.41347 v 14.33603 z m 150.6669,0 V 37.109208 h 82.94417 v 14.336029 h -67.41347 v 38.22941 h 60.24545 v 14.165363 h -60.24545 v 44.71475 h 67.41347 v 14.33603 z m 150.66687,0 V 37.109208 h 15.5307 V 148.55476 h 63.31746 v 14.33603 z m 303.17902,0 V 37.109208 h 15.5307 v 52.736106 h 62.2935 V 37.109208 h 15.5306 V 162.89079 h -15.5306 v -59.22145 h -62.2935 v 59.22145 z m 166.8801,0 V 37.109208 h 82.9442 v 14.336029 h -67.4135 v 38.22941 h 60.2455 v 14.165363 h -60.2455 v 44.71475 h 67.4135 v 14.33603 z m 138.2082,0 42.4961,-125.781582 h 24.064 l 42.4961,125.781582 h -16.2133 l -10.7521,-32.76806 h -55.1254 l -10.5814,32.76806 z m 31.5734,-46.42142 h 46.0801 l -21.1627,-64.682799 h -3.9254 z m 160.2243,46.42142 -42.6667,-125.781582 h 16.384 l 36.3521,110.933552 h 3.7547 l 36.352,-110.933552 h 16.3841 l -42.6668,125.781582 z m 127.6269,0 V 37.109208 h 82.9442 v 14.336029 h -67.4135 v 38.22941 h 60.2455 v 14.165363 h -60.2455 v 44.71475 h 67.4135 v 14.33603 z m 150.6669,0 V 37.109208 h 21.1627 L 1870.06,138.31474 V 37.109208 h 15.5307 V 162.89079 h -18.4321 l -55.1254,-99.328195 h -3.7547 v 99.328195 z"
       id="text4-8"
       style="font-size:170.667px;line-height:0;font-family:Tomorrow;-inkscape-font-specification:Tomorrow;letter-spacing:44px"
       aria-label="WHEEL  HEAVEN" />
    <text
       xml:space="preserve"
       style="font-style:normal;font-variant:normal;font-weight:normal;font-stretch:normal;font-size:170.667px;line-height:0;font-family:Tomorrow;-inkscape-font-specification:Tomorrow;letter-spacing:40px;fill:#000000"
       x="42.676163"
       y="779.66516"
       id="text4-8-3"><tspan
         sodipodi:role="line"
         id="tspan4-6-0"
         x="42.676163"
         y="779.66516"
         style="font-size:170.667px;letter-spacing:40px" /></text>
    <path
       d="m 892.2717,90.391659 -17.9201,-17.92004 v -17.44237 l 17.9201,-17.92004 h 21.90253 l 17.9201,17.92004 v 17.44237 l -17.9201,17.92004 z m 6.9973,-13.82403 h 7.9079 l 9.38663,-9.38669 v -6.86101 l -9.38663,-9.38669 h -7.9079 l -9.3867,9.38669 v 6.64644 0.21457 z M 879.08475,162.89079 878.922,102.61534 h 48.63036 v 14.33603 H 894.4527 v 11.47067 l 17.99866,-0.42653 v 14.16536 l -17.99866,0.42653 0.16275,20.30339 z"
       id="text4-8-4"
       style="font-size:170.667px;line-height:0;font-family:Tomorrow;-inkscape-font-specification:Tomorrow;letter-spacing:40px"
       aria-label="OF"
       sodipodi:nodetypes="cccccccccccccccccccccccccccccc" />
    <text
       xml:space="preserve"
       id="text7"
       style="font-style:normal;font-variant:normal;font-weight:normal;font-stretch:normal;font-size:170.667px;line-height:0;font-family:Tomorrow;-inkscape-font-specification:Tomorrow;letter-spacing:40px;white-space:pre;shape-inside:url(#rect7);display:inline;fill:#ff00ff"
       transform="translate(-13.514506,-132.20445)" />
  </g>
</svg>
